<svg width="596" height="367" viewBox="0 0 596 367" fill="none" xmlns="http://www.w3.org/2000/svg">
<path d="M0 16C0 8.45753 0 4.68629 2.34315 2.34315C4.68629 0 8.45753 0 16 0H580C587.542 0 591.314 0 593.657 2.34315C596 4.68629 596 8.45753 596 16V351C596 358.542 596 362.314 593.657 364.657C591.314 367 587.542 367 580 367H16C8.45753 367 4.68629 367 2.34315 364.657C0 362.314 0 358.542 0 351V16Z" fill="white"/>
<g clip-path="url(#clip0_22_2392)">
<path d="M302.78 131.3L290.956 129.2V144.717C290.956 145.425 291.526 146 292.231 146H312.634C313.338 146 313.909 145.425 313.909 144.717V139L302.78 131.3Z" fill="#185C37"/>
<path d="M302.78 118H292.231C291.526 118 290.956 118.574 290.956 119.283V125L302.78 132L309.04 134.1L313.909 132V125L302.78 118Z" fill="#21A366"/>
<path d="M290.956 125H302.78V132H290.956V125Z" fill="#107C41"/>
<path opacity="0.1" d="M299.418 123.6H290.956V141.1H299.418C300.122 141.098 300.691 140.525 300.693 139.817V124.884C300.691 124.176 300.122 123.603 299.418 123.6Z" fill="black"/>
<path opacity="0.2" d="M298.723 124.3H290.956V141.8H298.723C299.426 141.798 299.996 141.225 299.998 140.517V125.583C299.996 124.876 299.426 124.303 298.723 124.3Z" fill="black"/>
<path opacity="0.2" d="M298.723 124.3H290.956V140.4H298.723C299.426 140.398 299.996 139.825 299.998 139.117V125.583C299.996 124.876 299.426 124.303 298.723 124.3Z" fill="black"/>
<path opacity="0.2" d="M298.027 124.3H290.956V140.4H298.027C298.731 140.398 299.3 139.825 299.302 139.117V125.583C299.3 124.876 298.731 124.303 298.027 124.3Z" fill="black"/>
<path d="M285.275 124.3H298.027C298.731 124.3 299.302 124.875 299.302 125.583V138.417C299.302 139.126 298.731 139.7 298.027 139.7H285.275C284.571 139.7 284 139.126 284 138.417V125.583C284 124.875 284.571 124.3 285.275 124.3Z" fill="url(#paint0_linear_22_2392)"/>
<path d="M287.949 136.171L290.631 131.988L288.173 127.829H290.15L291.491 130.489C291.615 130.741 291.7 130.929 291.746 131.053H291.763C291.851 130.851 291.944 130.656 292.041 130.466L293.475 127.83H295.29L292.77 131.965L295.354 136.171H293.423L291.874 133.251C291.801 133.127 291.739 132.996 291.689 132.861H291.666C291.62 132.993 291.56 133.12 291.486 133.239L289.891 136.171H287.949Z" fill="white"/>
<path d="M312.634 118H302.78V125H313.909V119.283C313.909 118.574 313.338 118 312.634 118Z" fill="#33C481"/>
<path d="M302.78 132H313.909V139H302.78V132Z" fill="#107C41"/>
</g>
<path d="M170.013 184V182.752C170.579 182.752 171.101 182.645 171.581 182.432C172.061 182.208 172.483 181.893 172.845 181.488C173.219 181.083 173.507 180.619 173.709 180.096C173.923 179.563 174.029 178.997 174.029 178.4C174.029 177.803 173.923 177.243 173.709 176.72C173.507 176.187 173.219 175.717 172.845 175.312C172.483 174.907 172.061 174.597 171.581 174.384C171.101 174.16 170.579 174.048 170.013 174.048V172.8C171.069 172.8 171.997 173.04 172.797 173.52C173.608 173.989 174.243 174.645 174.701 175.488C175.16 176.331 175.389 177.301 175.389 178.4C175.389 179.488 175.16 180.453 174.701 181.296C174.243 182.139 173.608 182.8 172.797 183.28C171.997 183.76 171.069 184 170.013 184ZM167.693 184V182.752H170.013V184H167.693ZM166.605 184V172.8H167.965V184H166.605ZM167.693 174.048V172.8H170.013V174.048H167.693ZM177.957 179.664C177.957 178.8 178.122 178.101 178.453 177.568C178.783 177.024 179.205 176.624 179.717 176.368C180.239 176.101 180.789 175.968 181.365 175.968V177.168C180.895 177.168 180.442 177.248 180.005 177.408C179.578 177.557 179.226 177.808 178.949 178.16C178.671 178.512 178.533 178.992 178.533 179.6L177.957 179.664ZM177.253 184V176H178.533V184H177.253ZM186.195 184.192C185.416 184.192 184.723 184.016 184.115 183.664C183.518 183.301 183.048 182.805 182.707 182.176C182.366 181.547 182.195 180.821 182.195 180C182.195 179.179 182.36 178.453 182.691 177.824C183.032 177.195 183.502 176.704 184.099 176.352C184.707 175.989 185.395 175.808 186.163 175.808C186.952 175.808 187.646 175.989 188.243 176.352C188.851 176.704 189.32 177.195 189.651 177.824C189.992 178.453 190.163 179.179 190.163 180C190.163 180.821 189.992 181.547 189.651 182.176C189.32 182.805 188.856 183.301 188.259 183.664C187.662 184.016 186.974 184.192 186.195 184.192ZM186.195 183.008C186.728 183.008 187.192 182.88 187.587 182.624C187.982 182.368 188.291 182.016 188.515 181.568C188.75 181.12 188.867 180.597 188.867 180C188.867 179.403 188.75 178.88 188.515 178.432C188.291 177.984 187.976 177.632 187.571 177.376C187.166 177.12 186.696 176.992 186.163 176.992C185.64 176.992 185.176 177.12 184.771 177.376C184.376 177.632 184.062 177.984 183.827 178.432C183.603 178.88 183.491 179.403 183.491 180C183.491 180.587 183.603 181.109 183.827 181.568C184.062 182.016 184.382 182.368 184.787 182.624C185.203 182.88 185.672 183.008 186.195 183.008ZM192.02 187.2V176H193.22L193.3 177.472V187.2H192.02ZM196.004 184.192C195.332 184.192 194.74 184.016 194.228 183.664C193.727 183.312 193.338 182.821 193.06 182.192C192.783 181.552 192.644 180.821 192.644 180C192.644 179.168 192.783 178.437 193.06 177.808C193.338 177.179 193.727 176.688 194.228 176.336C194.74 175.984 195.332 175.808 196.004 175.808C196.719 175.808 197.348 175.984 197.892 176.336C198.436 176.688 198.858 177.179 199.156 177.808C199.466 178.437 199.62 179.168 199.62 180C199.62 180.821 199.466 181.552 199.156 182.192C198.858 182.821 198.436 183.312 197.892 183.664C197.348 184.016 196.719 184.192 196.004 184.192ZM195.716 183.024C196.218 183.024 196.66 182.896 197.044 182.64C197.439 182.384 197.748 182.027 197.972 181.568C198.207 181.109 198.324 180.587 198.324 180C198.324 179.413 198.212 178.891 197.988 178.432C197.775 177.973 197.471 177.616 197.076 177.36C196.682 177.104 196.234 176.976 195.732 176.976C195.263 176.976 194.842 177.104 194.468 177.36C194.106 177.616 193.818 177.973 193.604 178.432C193.402 178.891 193.3 179.413 193.3 180C193.3 180.587 193.402 181.109 193.604 181.568C193.818 182.027 194.106 182.384 194.468 182.64C194.831 182.896 195.247 183.024 195.716 183.024ZM206.067 187.392C205.864 187.392 205.629 187.349 205.363 187.264C205.096 187.189 204.813 187.088 204.515 186.96L204.995 185.888C205.24 185.995 205.453 186.075 205.635 186.128C205.827 186.181 205.976 186.208 206.083 186.208C206.371 186.208 206.605 186.128 206.787 185.968C206.979 185.819 207.139 185.6 207.267 185.312L208.179 183.136L211.139 176H212.515L208.675 185.12C208.472 185.589 208.259 185.995 208.035 186.336C207.821 186.677 207.56 186.939 207.251 187.12C206.941 187.301 206.547 187.392 206.067 187.392ZM207.827 184L204.371 176H205.731L208.707 183.12L209.091 184H207.827ZM217.117 184.192C216.338 184.192 215.645 184.016 215.037 183.664C214.44 183.301 213.97 182.805 213.629 182.176C213.288 181.547 213.117 180.821 213.117 180C213.117 179.179 213.282 178.453 213.613 177.824C213.954 177.195 214.424 176.704 215.021 176.352C215.629 175.989 216.317 175.808 217.085 175.808C217.874 175.808 218.568 175.989 219.165 176.352C219.773 176.704 220.242 177.195 220.573 177.824C220.914 178.453 221.085 179.179 221.085 180C221.085 180.821 220.914 181.547 220.573 182.176C220.242 182.805 219.778 183.301 219.181 183.664C218.584 184.016 217.896 184.192 217.117 184.192ZM217.117 183.008C217.65 183.008 218.114 182.88 218.509 182.624C218.904 182.368 219.213 182.016 219.437 181.568C219.672 181.12 219.789 180.597 219.789 180C219.789 179.403 219.672 178.88 219.437 178.432C219.213 177.984 218.898 177.632 218.493 177.376C218.088 177.12 217.618 176.992 217.085 176.992C216.562 176.992 216.098 177.12 215.693 177.376C215.298 177.632 214.984 177.984 214.749 178.432C214.525 178.88 214.413 179.403 214.413 180C214.413 180.587 214.525 181.109 214.749 181.568C214.984 182.016 215.304 182.368 215.709 182.624C216.125 182.88 216.594 183.008 217.117 183.008ZM228.35 184L228.27 182.528V176H229.55V184H228.35ZM222.654 180.576V176H223.934V180.096L222.654 180.576ZM223.934 180.096C223.934 180.885 224.025 181.488 224.206 181.904C224.388 182.32 224.638 182.608 224.958 182.768C225.289 182.917 225.657 182.992 226.062 182.992C226.756 182.992 227.294 182.741 227.678 182.24C228.073 181.739 228.27 181.04 228.27 180.144H228.894C228.894 180.987 228.772 181.712 228.526 182.32C228.281 182.928 227.924 183.392 227.454 183.712C226.996 184.032 226.436 184.192 225.774 184.192C224.804 184.192 224.036 183.893 223.47 183.296C222.916 182.699 222.644 181.792 222.654 180.576L223.934 180.096ZM232.488 179.664C232.488 178.8 232.653 178.101 232.984 177.568C233.315 177.024 233.736 176.624 234.248 176.368C234.771 176.101 235.32 175.968 235.896 175.968V177.168C235.427 177.168 234.973 177.248 234.536 177.408C234.109 177.557 233.757 177.808 233.48 178.16C233.203 178.512 233.064 178.992 233.064 179.6L232.488 179.664ZM231.784 184V176H233.064V184H231.784ZM244.647 184.192C243.869 184.192 243.181 184.016 242.583 183.664C241.986 183.301 241.517 182.805 241.175 182.176C240.845 181.547 240.679 180.821 240.679 180C240.679 179.179 240.845 178.453 241.175 177.824C241.517 177.195 241.981 176.704 242.567 176.352C243.165 175.989 243.847 175.808 244.615 175.808C245.351 175.808 245.991 175.995 246.535 176.368C247.09 176.731 247.517 177.243 247.815 177.904C248.114 178.565 248.263 179.344 248.263 180.24H246.983C246.983 179.557 246.893 178.976 246.711 178.496C246.53 178.005 246.258 177.627 245.895 177.36C245.543 177.093 245.111 176.96 244.599 176.96C244.077 176.96 243.613 177.088 243.207 177.344C242.813 177.589 242.509 177.941 242.295 178.4C242.082 178.859 241.975 179.397 241.975 180.016C241.975 180.624 242.093 181.152 242.327 181.6C242.562 182.037 242.887 182.384 243.303 182.64C243.719 182.885 244.189 183.008 244.711 183.008C245.266 183.008 245.735 182.875 246.119 182.608C246.503 182.341 246.807 181.995 247.031 181.568L248.151 182.128C247.949 182.544 247.677 182.907 247.335 183.216C247.005 183.525 246.61 183.765 246.151 183.936C245.703 184.107 245.202 184.192 244.647 184.192ZM241.527 180.24L241.543 179.136H247.479V180.24H241.527ZM248.84 184L252.104 179.408L254.408 176H255.928L252.888 180.32L250.392 184H248.84ZM254.584 184L252.12 180.32L249.048 176H250.568L252.888 179.408L256.12 184H254.584ZM260.883 184.192C260.094 184.192 259.395 184.016 258.787 183.664C258.179 183.301 257.705 182.805 257.363 182.176C257.022 181.547 256.851 180.821 256.851 180C256.851 179.179 257.017 178.453 257.347 177.824C257.689 177.195 258.163 176.704 258.771 176.352C259.379 175.989 260.073 175.808 260.851 175.808C261.619 175.808 262.307 175.984 262.915 176.336C263.523 176.688 263.987 177.184 264.307 177.824L263.139 178.352C262.926 177.925 262.617 177.595 262.211 177.36C261.806 177.115 261.342 176.992 260.819 176.992C260.297 176.992 259.833 177.12 259.427 177.376C259.033 177.632 258.718 177.989 258.483 178.448C258.259 178.896 258.147 179.413 258.147 180C258.147 180.587 258.259 181.109 258.483 181.568C258.718 182.016 259.038 182.368 259.443 182.624C259.859 182.88 260.329 183.008 260.851 183.008C261.374 183.008 261.838 182.875 262.243 182.608C262.659 182.341 262.974 181.968 263.187 181.488L264.355 182.016C264.035 182.699 263.571 183.232 262.963 183.616C262.355 184 261.662 184.192 260.883 184.192ZM269.476 184.192C268.697 184.192 268.009 184.016 267.412 183.664C266.814 183.301 266.345 182.805 266.004 182.176C265.673 181.547 265.508 180.821 265.508 180C265.508 179.179 265.673 178.453 266.004 177.824C266.345 177.195 266.809 176.704 267.396 176.352C267.993 175.989 268.676 175.808 269.444 175.808C270.18 175.808 270.82 175.995 271.364 176.368C271.918 176.731 272.345 177.243 272.644 177.904C272.942 178.565 273.092 179.344 273.092 180.24H271.812C271.812 179.557 271.721 178.976 271.54 178.496C271.358 178.005 271.086 177.627 270.724 177.36C270.372 177.093 269.94 176.96 269.428 176.96C268.905 176.96 268.441 177.088 268.036 177.344C267.641 177.589 267.337 177.941 267.124 178.4C266.91 178.859 266.804 179.397 266.804 180.016C266.804 180.624 266.921 181.152 267.156 181.6C267.39 182.037 267.716 182.384 268.132 182.64C268.548 182.885 269.017 183.008 269.54 183.008C270.094 183.008 270.564 182.875 270.948 182.608C271.332 182.341 271.636 181.995 271.86 181.568L272.98 182.128C272.777 182.544 272.505 182.907 272.164 183.216C271.833 183.525 271.438 183.765 270.98 183.936C270.532 184.107 270.03 184.192 269.476 184.192ZM266.356 180.24L266.372 179.136H272.308V180.24H266.356ZM274.706 184V172.8H275.986V184H274.706ZM284.975 184.192C284.388 184.192 283.876 184.107 283.439 183.936C283.001 183.755 282.633 183.52 282.335 183.232C282.047 182.944 281.839 182.629 281.711 182.288L282.831 181.824C283.012 182.187 283.284 182.48 283.647 182.704C284.009 182.928 284.409 183.04 284.847 183.04C285.348 183.04 285.769 182.944 286.111 182.752C286.452 182.549 286.623 182.267 286.623 181.904C286.623 181.573 286.495 181.307 286.239 181.104C285.993 180.901 285.625 180.736 285.135 180.608L284.367 180.4C283.641 180.208 283.076 179.92 282.671 179.536C282.265 179.141 282.063 178.699 282.063 178.208C282.063 177.451 282.308 176.864 282.799 176.448C283.3 176.021 284.041 175.808 285.023 175.808C285.492 175.808 285.919 175.877 286.303 176.016C286.687 176.155 287.017 176.352 287.295 176.608C287.572 176.853 287.775 177.147 287.903 177.488L286.783 177.984C286.644 177.621 286.415 177.36 286.095 177.2C285.775 177.04 285.385 176.96 284.927 176.96C284.436 176.96 284.052 177.067 283.775 177.28C283.497 177.483 283.359 177.771 283.359 178.144C283.359 178.357 283.471 178.56 283.695 178.752C283.929 178.933 284.271 179.083 284.719 179.2L285.519 179.408C286.041 179.536 286.479 179.728 286.831 179.984C287.183 180.229 287.449 180.512 287.631 180.832C287.812 181.152 287.903 181.493 287.903 181.856C287.903 182.336 287.775 182.752 287.519 183.104C287.263 183.456 286.916 183.728 286.479 183.92C286.041 184.101 285.54 184.192 284.975 184.192ZM289.628 184V172.592H290.908V184H289.628ZM295.26 184V179.904L296.54 179.424V184H295.26ZM295.26 179.904C295.26 179.115 295.164 178.512 294.972 178.096C294.79 177.68 294.54 177.397 294.22 177.248C293.9 177.088 293.537 177.008 293.132 177.008C292.428 177.008 291.878 177.259 291.484 177.76C291.1 178.251 290.908 178.949 290.908 179.856H290.284C290.284 179.013 290.406 178.288 290.652 177.68C290.897 177.072 291.254 176.608 291.724 176.288C292.193 175.968 292.758 175.808 293.42 175.808C294.38 175.808 295.142 176.107 295.708 176.704C296.273 177.301 296.55 178.208 296.54 179.424L295.26 179.904ZM302.054 184.192C301.275 184.192 300.587 184.016 299.99 183.664C299.392 183.301 298.923 182.805 298.582 182.176C298.251 181.547 298.086 180.821 298.086 180C298.086 179.179 298.251 178.453 298.582 177.824C298.923 177.195 299.387 176.704 299.974 176.352C300.571 175.989 301.254 175.808 302.022 175.808C302.758 175.808 303.398 175.995 303.942 176.368C304.496 176.731 304.923 177.243 305.222 177.904C305.52 178.565 305.67 179.344 305.67 180.24H304.39C304.39 179.557 304.299 178.976 304.118 178.496C303.936 178.005 303.664 177.627 303.302 177.36C302.95 177.093 302.518 176.96 302.006 176.96C301.483 176.96 301.019 177.088 300.614 177.344C300.219 177.589 299.915 177.941 299.702 178.4C299.488 178.859 299.382 179.397 299.382 180.016C299.382 180.624 299.499 181.152 299.734 181.6C299.968 182.037 300.294 182.384 300.71 182.64C301.126 182.885 301.595 183.008 302.118 183.008C302.672 183.008 303.142 182.875 303.526 182.608C303.91 182.341 304.214 181.995 304.438 181.568L305.558 182.128C305.355 182.544 305.083 182.907 304.742 183.216C304.411 183.525 304.016 183.765 303.558 183.936C303.11 184.107 302.608 184.192 302.054 184.192ZM298.934 180.24L298.95 179.136H304.886V180.24H298.934ZM310.788 184.192C310.009 184.192 309.321 184.016 308.724 183.664C308.127 183.301 307.657 182.805 307.316 182.176C306.985 181.547 306.82 180.821 306.82 180C306.82 179.179 306.985 178.453 307.316 177.824C307.657 177.195 308.121 176.704 308.708 176.352C309.305 175.989 309.988 175.808 310.756 175.808C311.492 175.808 312.132 175.995 312.676 176.368C313.231 176.731 313.657 177.243 313.956 177.904C314.255 178.565 314.404 179.344 314.404 180.24H313.124C313.124 179.557 313.033 178.976 312.852 178.496C312.671 178.005 312.399 177.627 312.036 177.36C311.684 177.093 311.252 176.96 310.74 176.96C310.217 176.96 309.753 177.088 309.348 177.344C308.953 177.589 308.649 177.941 308.436 178.4C308.223 178.859 308.116 179.397 308.116 180.016C308.116 180.624 308.233 181.152 308.468 181.6C308.703 182.037 309.028 182.384 309.444 182.64C309.86 182.885 310.329 183.008 310.852 183.008C311.407 183.008 311.876 182.875 312.26 182.608C312.644 182.341 312.948 181.995 313.172 181.568L314.292 182.128C314.089 182.544 313.817 182.907 313.476 183.216C313.145 183.525 312.751 183.765 312.292 183.936C311.844 184.107 311.343 184.192 310.788 184.192ZM307.668 180.24L307.684 179.136H313.62V180.24H307.668ZM319.026 184.192C318.248 184.192 317.645 183.989 317.218 183.584C316.792 183.179 316.578 182.608 316.578 181.872V173.504H317.858V181.744C317.858 182.149 317.965 182.464 318.178 182.688C318.402 182.901 318.712 183.008 319.106 183.008C319.234 183.008 319.357 182.992 319.474 182.96C319.602 182.917 319.768 182.821 319.97 182.672L320.466 183.712C320.189 183.893 319.938 184.016 319.714 184.08C319.49 184.155 319.261 184.192 319.026 184.192ZM315.186 177.136V176H320.258V177.136H315.186ZM326.018 184V172.592H327.298V184H326.018ZM331.65 184V179.904L332.93 179.424V184H331.65ZM331.65 179.904C331.65 179.115 331.554 178.512 331.362 178.096C331.181 177.68 330.93 177.397 330.61 177.248C330.29 177.088 329.928 177.008 329.522 177.008C328.818 177.008 328.269 177.259 327.874 177.76C327.49 178.251 327.298 178.949 327.298 179.856H326.674C326.674 179.013 326.797 178.288 327.042 177.68C327.288 177.072 327.645 176.608 328.114 176.288C328.584 175.968 329.149 175.808 329.81 175.808C330.77 175.808 331.533 176.107 332.098 176.704C332.664 177.301 332.941 178.208 332.93 179.424L331.65 179.904ZM338.444 184.192C337.666 184.192 336.978 184.016 336.38 183.664C335.783 183.301 335.314 182.805 334.972 182.176C334.642 181.547 334.476 180.821 334.476 180C334.476 179.179 334.642 178.453 334.972 177.824C335.314 177.195 335.778 176.704 336.364 176.352C336.962 175.989 337.644 175.808 338.412 175.808C339.148 175.808 339.788 175.995 340.332 176.368C340.887 176.731 341.314 177.243 341.612 177.904C341.911 178.565 342.06 179.344 342.06 180.24H340.78C340.78 179.557 340.69 178.976 340.508 178.496C340.327 178.005 340.055 177.627 339.692 177.36C339.34 177.093 338.908 176.96 338.396 176.96C337.874 176.96 337.41 177.088 337.004 177.344C336.61 177.589 336.306 177.941 336.092 178.4C335.879 178.859 335.772 179.397 335.772 180.016C335.772 180.624 335.89 181.152 336.124 181.6C336.359 182.037 336.684 182.384 337.1 182.64C337.516 182.885 337.986 183.008 338.508 183.008C339.063 183.008 339.532 182.875 339.916 182.608C340.3 182.341 340.604 181.995 340.828 181.568L341.948 182.128C341.746 182.544 341.474 182.907 341.132 183.216C340.802 183.525 340.407 183.765 339.948 183.936C339.5 184.107 338.999 184.192 338.444 184.192ZM335.324 180.24L335.34 179.136H341.276V180.24H335.324ZM344.379 179.664C344.379 178.8 344.544 178.101 344.875 177.568C345.205 177.024 345.627 176.624 346.139 176.368C346.661 176.101 347.211 175.968 347.787 175.968V177.168C347.317 177.168 346.864 177.248 346.427 177.408C346 177.557 345.648 177.808 345.371 178.16C345.093 178.512 344.955 178.992 344.955 179.6L344.379 179.664ZM343.675 184V176H344.955V184H343.675ZM352.585 184.192C351.806 184.192 351.118 184.016 350.521 183.664C349.924 183.301 349.454 182.805 349.113 182.176C348.782 181.547 348.617 180.821 348.617 180C348.617 179.179 348.782 178.453 349.113 177.824C349.454 177.195 349.918 176.704 350.505 176.352C351.102 175.989 351.785 175.808 352.553 175.808C353.289 175.808 353.929 175.995 354.473 176.368C355.028 176.731 355.454 177.243 355.753 177.904C356.052 178.565 356.201 179.344 356.201 180.24H354.921C354.921 179.557 354.83 178.976 354.649 178.496C354.468 178.005 354.196 177.627 353.833 177.36C353.481 177.093 353.049 176.96 352.537 176.96C352.014 176.96 351.55 177.088 351.145 177.344C350.75 177.589 350.446 177.941 350.233 178.4C350.02 178.859 349.913 179.397 349.913 180.016C349.913 180.624 350.03 181.152 350.265 181.6C350.5 182.037 350.825 182.384 351.241 182.64C351.657 182.885 352.126 183.008 352.649 183.008C353.204 183.008 353.673 182.875 354.057 182.608C354.441 182.341 354.745 181.995 354.969 181.568L356.089 182.128C355.886 182.544 355.614 182.907 355.273 183.216C354.942 183.525 354.548 183.765 354.089 183.936C353.641 184.107 353.14 184.192 352.585 184.192ZM349.465 180.24L349.481 179.136H355.417V180.24H349.465ZM365.304 184.192C364.526 184.192 363.832 184.016 363.224 183.664C362.627 183.301 362.158 182.805 361.816 182.176C361.475 181.547 361.304 180.821 361.304 180C361.304 179.179 361.47 178.453 361.8 177.824C362.142 177.195 362.611 176.704 363.208 176.352C363.816 175.989 364.504 175.808 365.272 175.808C366.062 175.808 366.755 175.989 367.352 176.352C367.96 176.704 368.43 177.195 368.76 177.824C369.102 178.453 369.272 179.179 369.272 180C369.272 180.821 369.102 181.547 368.76 182.176C368.43 182.805 367.966 183.301 367.368 183.664C366.771 184.016 366.083 184.192 365.304 184.192ZM365.304 183.008C365.838 183.008 366.302 182.88 366.696 182.624C367.091 182.368 367.4 182.016 367.624 181.568C367.859 181.12 367.976 180.597 367.976 180C367.976 179.403 367.859 178.88 367.624 178.432C367.4 177.984 367.086 177.632 366.68 177.376C366.275 177.12 365.806 176.992 365.272 176.992C364.75 176.992 364.286 177.12 363.88 177.376C363.486 177.632 363.171 177.984 362.936 178.432C362.712 178.88 362.6 179.403 362.6 180C362.6 180.587 362.712 181.109 362.936 181.568C363.171 182.016 363.491 182.368 363.896 182.624C364.312 182.88 364.782 183.008 365.304 183.008ZM371.754 179.664C371.754 178.8 371.919 178.101 372.25 177.568C372.58 177.024 373.002 176.624 373.514 176.368C374.036 176.101 374.586 175.968 375.162 175.968V177.168C374.692 177.168 374.239 177.248 373.802 177.408C373.375 177.557 373.023 177.808 372.746 178.16C372.468 178.512 372.33 178.992 372.33 179.6L371.754 179.664ZM371.05 184V176H372.33V184H371.05Z" fill="#999CA0"/>
<path d="M380.409 184V172.8H381.689V182.512L381.625 184H380.409ZM384.393 184.192C383.721 184.192 383.129 184.016 382.617 183.664C382.116 183.312 381.726 182.821 381.449 182.192C381.172 181.552 381.033 180.821 381.033 180C381.033 179.168 381.172 178.437 381.449 177.808C381.726 177.179 382.116 176.688 382.617 176.336C383.129 175.984 383.721 175.808 384.393 175.808C385.108 175.808 385.737 175.984 386.281 176.336C386.825 176.688 387.246 177.179 387.545 177.808C387.854 178.437 388.009 179.168 388.009 180C388.009 180.821 387.854 181.552 387.545 182.192C387.246 182.821 386.825 183.312 386.281 183.664C385.737 184.016 385.108 184.192 384.393 184.192ZM384.105 183.024C384.606 183.024 385.049 182.896 385.433 182.64C385.828 182.384 386.137 182.027 386.361 181.568C386.596 181.109 386.713 180.587 386.713 180C386.713 179.413 386.601 178.891 386.377 178.432C386.164 177.973 385.86 177.616 385.465 177.36C385.07 177.104 384.622 176.976 384.121 176.976C383.652 176.976 383.23 177.104 382.857 177.36C382.494 177.616 382.206 177.973 381.993 178.432C381.79 178.891 381.689 179.413 381.689 180C381.689 180.587 381.79 181.109 381.993 181.568C382.206 182.027 382.494 182.384 382.857 182.64C383.22 182.896 383.636 183.024 384.105 183.024ZM390.488 179.664C390.488 178.8 390.653 178.101 390.984 177.568C391.315 177.024 391.736 176.624 392.248 176.368C392.771 176.101 393.32 175.968 393.896 175.968V177.168C393.427 177.168 392.973 177.248 392.536 177.408C392.109 177.557 391.757 177.808 391.48 178.16C391.203 178.512 391.064 178.992 391.064 179.6L390.488 179.664ZM389.784 184V176H391.064V184H389.784ZM398.726 184.192C397.948 184.192 397.254 184.016 396.646 183.664C396.049 183.301 395.58 182.805 395.238 182.176C394.897 181.547 394.726 180.821 394.726 180C394.726 179.179 394.892 178.453 395.222 177.824C395.564 177.195 396.033 176.704 396.63 176.352C397.238 175.989 397.926 175.808 398.694 175.808C399.484 175.808 400.177 175.989 400.774 176.352C401.382 176.704 401.852 177.195 402.182 177.824C402.524 178.453 402.694 179.179 402.694 180C402.694 180.821 402.524 181.547 402.182 182.176C401.852 182.805 401.388 183.301 400.79 183.664C400.193 184.016 399.505 184.192 398.726 184.192ZM398.726 183.008C399.26 183.008 399.724 182.88 400.118 182.624C400.513 182.368 400.822 182.016 401.046 181.568C401.281 181.12 401.398 180.597 401.398 180C401.398 179.403 401.281 178.88 401.046 178.432C400.822 177.984 400.508 177.632 400.102 177.376C399.697 177.12 399.228 176.992 398.694 176.992C398.172 176.992 397.708 177.12 397.302 177.376C396.908 177.632 396.593 177.984 396.358 178.432C396.134 178.88 396.022 179.403 396.022 180C396.022 180.587 396.134 181.109 396.358 181.568C396.593 182.016 396.913 182.368 397.318 182.624C397.734 182.88 398.204 183.008 398.726 183.008ZM411.532 184L414.236 176H415.532L412.812 184H411.532ZM406.092 184L408.796 176H409.996L407.324 184H406.092ZM406.028 184L403.308 176H404.604L407.276 184H406.028ZM411.532 184L408.86 176H410.076L412.748 184H411.532ZM419.615 184.192C419.029 184.192 418.517 184.107 418.079 183.936C417.642 183.755 417.274 183.52 416.975 183.232C416.687 182.944 416.479 182.629 416.351 182.288L417.471 181.824C417.653 182.187 417.925 182.48 418.287 182.704C418.65 182.928 419.05 183.04 419.487 183.04C419.989 183.04 420.41 182.944 420.751 182.752C421.093 182.549 421.263 182.267 421.263 181.904C421.263 181.573 421.135 181.307 420.879 181.104C420.634 180.901 420.266 180.736 419.775 180.608L419.007 180.4C418.282 180.208 417.717 179.92 417.311 179.536C416.906 179.141 416.703 178.699 416.703 178.208C416.703 177.451 416.949 176.864 417.439 176.448C417.941 176.021 418.682 175.808 419.663 175.808C420.133 175.808 420.559 175.877 420.943 176.016C421.327 176.155 421.658 176.352 421.935 176.608C422.213 176.853 422.415 177.147 422.543 177.488L421.423 177.984C421.285 177.621 421.055 177.36 420.735 177.2C420.415 177.04 420.026 176.96 419.567 176.96C419.077 176.96 418.693 177.067 418.415 177.28C418.138 177.483 417.999 177.771 417.999 178.144C417.999 178.357 418.111 178.56 418.335 178.752C418.57 178.933 418.911 179.083 419.359 179.2L420.159 179.408C420.682 179.536 421.119 179.728 421.471 179.984C421.823 180.229 422.09 180.512 422.271 180.832C422.453 181.152 422.543 181.493 422.543 181.856C422.543 182.336 422.415 182.752 422.159 183.104C421.903 183.456 421.557 183.728 421.119 183.92C420.682 184.101 420.181 184.192 419.615 184.192ZM427.772 184.192C426.994 184.192 426.306 184.016 425.708 183.664C425.111 183.301 424.642 182.805 424.3 182.176C423.97 181.547 423.804 180.821 423.804 180C423.804 179.179 423.97 178.453 424.3 177.824C424.642 177.195 425.106 176.704 425.692 176.352C426.29 175.989 426.972 175.808 427.74 175.808C428.476 175.808 429.116 175.995 429.66 176.368C430.215 176.731 430.642 177.243 430.94 177.904C431.239 178.565 431.388 179.344 431.388 180.24H430.108C430.108 179.557 430.018 178.976 429.836 178.496C429.655 178.005 429.383 177.627 429.02 177.36C428.668 177.093 428.236 176.96 427.724 176.96C427.202 176.96 426.738 177.088 426.332 177.344C425.938 177.589 425.634 177.941 425.42 178.4C425.207 178.859 425.1 179.397 425.1 180.016C425.1 180.624 425.218 181.152 425.452 181.6C425.687 182.037 426.012 182.384 426.428 182.64C426.844 182.885 427.314 183.008 427.836 183.008C428.391 183.008 428.86 182.875 429.244 182.608C429.628 182.341 429.932 181.995 430.156 181.568L431.276 182.128C431.074 182.544 430.802 182.907 430.46 183.216C430.13 183.525 429.735 183.765 429.276 183.936C428.828 184.107 428.327 184.192 427.772 184.192ZM424.652 180.24L424.668 179.136H430.604V180.24H424.652Z" fill="#605BFF"/>
<rect x="16.5" y="16.5" width="563" height="257" rx="7.5" stroke="#EBEBEB" stroke-dasharray="2 2"/>
<rect x="16.5" y="16.5" width="563" height="257" rx="7.5" stroke="black" stroke-opacity="0.08" stroke-dasharray="2 2"/>
<g opacity="0.4">
<rect x="16" y="295" width="564" height="56" rx="8" fill="#605BFF"/>
<path d="M274.125 325.192V327.933C274.125 329.143 273.143 330.125 271.933 330.125H262.067C260.857 330.125 259.875 329.143 259.875 327.933V325.192M267 326.837V315.875M267 315.875L263.712 319.163M267 315.875L270.288 319.163" stroke="white" stroke-width="1.5" stroke-linecap="round" stroke-linejoin="round"/>
<path d="M291.9 328.196C291.125 328.196 290.444 328.042 289.856 327.734C289.277 327.417 288.825 326.973 288.498 326.404C288.181 325.835 288.022 325.172 288.022 324.416H289.646C289.646 324.873 289.739 325.275 289.926 325.62C290.122 325.956 290.393 326.222 290.738 326.418C291.083 326.605 291.48 326.698 291.928 326.698C292.385 326.698 292.787 326.605 293.132 326.418C293.487 326.222 293.757 325.956 293.944 325.62C294.131 325.275 294.224 324.873 294.224 324.416H295.848C295.848 325.172 295.685 325.835 295.358 326.404C295.041 326.973 294.583 327.417 293.986 327.734C293.398 328.042 292.703 328.196 291.9 328.196ZM288.022 324.416V318.2H289.646V324.416H288.022ZM294.224 324.416V318.2H295.848V324.416H294.224ZM297.809 330.8V321H299.279L299.377 322.288V330.8H297.809ZM301.589 328.168C301.001 328.168 300.492 328.019 300.063 327.72C299.643 327.412 299.321 326.983 299.097 326.432C298.873 325.881 298.761 325.237 298.761 324.5C298.761 323.753 298.873 323.109 299.097 322.568C299.321 322.017 299.643 321.593 300.063 321.294C300.492 320.986 301.001 320.832 301.589 320.832C302.224 320.832 302.774 320.986 303.241 321.294C303.717 321.593 304.086 322.017 304.347 322.568C304.618 323.109 304.753 323.753 304.753 324.5C304.753 325.237 304.618 325.881 304.347 326.432C304.086 326.983 303.717 327.412 303.241 327.72C302.774 328.019 302.224 328.168 301.589 328.168ZM301.197 326.74C301.57 326.74 301.902 326.647 302.191 326.46C302.48 326.264 302.709 325.998 302.877 325.662C303.054 325.326 303.143 324.939 303.143 324.5C303.143 324.061 303.059 323.674 302.891 323.338C302.732 323.002 302.508 322.741 302.219 322.554C301.93 322.367 301.594 322.274 301.211 322.274C300.856 322.274 300.539 322.367 300.259 322.554C299.979 322.741 299.76 323.002 299.601 323.338C299.452 323.674 299.377 324.061 299.377 324.5C299.377 324.939 299.452 325.326 299.601 325.662C299.76 325.998 299.974 326.264 300.245 326.46C300.525 326.647 300.842 326.74 301.197 326.74ZM306.093 328V318.2H307.661V328H306.093ZM312.621 328.168C311.921 328.168 311.296 328.014 310.745 327.706C310.204 327.389 309.779 326.955 309.471 326.404C309.163 325.853 309.009 325.219 309.009 324.5C309.009 323.781 309.159 323.147 309.457 322.596C309.765 322.045 310.19 321.616 310.731 321.308C311.273 320.991 311.893 320.832 312.593 320.832C313.293 320.832 313.914 320.991 314.455 321.308C314.997 321.616 315.417 322.045 315.715 322.596C316.023 323.147 316.177 323.781 316.177 324.5C316.177 325.219 316.028 325.853 315.729 326.404C315.431 326.955 315.011 327.389 314.469 327.706C313.928 328.014 313.312 328.168 312.621 328.168ZM312.621 326.726C313.004 326.726 313.345 326.633 313.643 326.446C313.942 326.25 314.175 325.989 314.343 325.662C314.511 325.326 314.595 324.939 314.595 324.5C314.595 324.061 314.507 323.679 314.329 323.352C314.161 323.016 313.928 322.755 313.629 322.568C313.331 322.372 312.985 322.274 312.593 322.274C312.201 322.274 311.856 322.367 311.557 322.554C311.259 322.741 311.025 323.002 310.857 323.338C310.689 323.674 310.605 324.061 310.605 324.5C310.605 324.939 310.689 325.326 310.857 325.662C311.035 325.989 311.273 326.25 311.571 326.446C311.879 326.633 312.229 326.726 312.621 326.726ZM321.778 328L321.708 326.684V324.402C321.708 323.926 321.657 323.529 321.554 323.212C321.451 322.895 321.288 322.652 321.064 322.484C320.849 322.316 320.565 322.232 320.21 322.232C319.883 322.232 319.594 322.302 319.342 322.442C319.09 322.582 318.88 322.797 318.712 323.086L317.284 322.582C317.443 322.274 317.648 321.985 317.9 321.714C318.152 321.443 318.469 321.229 318.852 321.07C319.244 320.911 319.706 320.832 320.238 320.832C320.919 320.832 321.484 320.958 321.932 321.21C322.389 321.462 322.73 321.835 322.954 322.33C323.178 322.825 323.29 323.436 323.29 324.164L323.248 328H321.778ZM319.79 328.168C318.95 328.168 318.297 327.981 317.83 327.608C317.373 327.235 317.144 326.707 317.144 326.026C317.144 325.298 317.387 324.743 317.872 324.36C318.367 323.977 319.053 323.786 319.93 323.786H321.806V324.99H320.434C319.809 324.99 319.37 325.079 319.118 325.256C318.866 325.424 318.74 325.667 318.74 325.984C318.74 326.255 318.847 326.469 319.062 326.628C319.286 326.777 319.594 326.852 319.986 326.852C320.331 326.852 320.63 326.773 320.882 326.614C321.143 326.446 321.344 326.231 321.484 325.97C321.633 325.699 321.708 325.41 321.708 325.102H322.282C322.282 326.054 322.077 326.805 321.666 327.356C321.265 327.897 320.639 328.168 319.79 328.168ZM329.932 328L329.862 326.698V318.2H331.416V328H329.932ZM327.65 328.168C327.015 328.168 326.46 328.019 325.984 327.72C325.517 327.412 325.148 326.983 324.878 326.432C324.616 325.881 324.486 325.237 324.486 324.5C324.486 323.753 324.616 323.109 324.878 322.568C325.148 322.017 325.517 321.593 325.984 321.294C326.46 320.986 327.015 320.832 327.65 320.832C328.238 320.832 328.742 320.986 329.162 321.294C329.591 321.593 329.918 322.017 330.142 322.568C330.366 323.109 330.478 323.753 330.478 324.5C330.478 325.237 330.366 325.881 330.142 326.432C329.918 326.983 329.591 327.412 329.162 327.72C328.742 328.019 328.238 328.168 327.65 328.168ZM328.042 326.74C328.396 326.74 328.709 326.647 328.98 326.46C329.26 326.264 329.474 325.998 329.624 325.662C329.782 325.326 329.862 324.939 329.862 324.5C329.862 324.061 329.782 323.674 329.624 323.338C329.474 323.002 329.26 322.741 328.98 322.554C328.709 322.367 328.392 322.274 328.028 322.274C327.654 322.274 327.323 322.367 327.034 322.554C326.744 322.741 326.516 323.002 326.348 323.338C326.189 323.674 326.105 324.061 326.096 324.5C326.105 324.939 326.189 325.326 326.348 325.662C326.516 325.998 326.744 326.264 327.034 326.46C327.332 326.647 327.668 326.74 328.042 326.74Z" fill="white"/>
</g>
<defs>
<linearGradient id="paint0_linear_22_2392" x1="286.658" y1="123.298" x2="296.74" y2="140.647" gradientUnits="userSpaceOnUse">
<stop stop-color="#18884F"/>
<stop offset="0.5" stop-color="#117E43"/>
<stop offset="1" stop-color="#0B6631"/>
</linearGradient>
<clipPath id="clip0_22_2392">
<rect width="29.9091" height="28" fill="white" transform="translate(284 118)"/>
</clipPath>
</defs>
</svg>
